<mxfile host="app.diagrams.net" modified="2021-11-09T05:56:40.706Z" agent="5.0 (Windows NT 10.0; Win64; x64) AppleWebKit/537.36 (KHTML, like Gecko) Chrome/77.0.3865.120 Safari/537.36" etag="xaiRedYqkDFJbxPZwnWm" version="15.7.0" type="github">
  <diagram id="x_19D062lGU3HyL52pI8" name="第 1 页">
    <mxGraphModel dx="716" dy="399" grid="1" gridSize="10" guides="1" tooltips="1" connect="1" arrows="1" fold="1" page="1" pageScale="1" pageWidth="827" pageHeight="1169" background="none" math="0" shadow="0">
      <root>
        <mxCell id="0" />
        <mxCell id="1" parent="0" />
        <mxCell id="abvOP73k08v8gDnkBYuO-16" value="" style="rounded=0;whiteSpace=wrap;html=1;shadow=1;sketch=0;labelBackgroundColor=none;labelBorderColor=none;glass=0;fillColor=#d5e8d4;strokeColor=#82b366;" vertex="1" parent="1">
          <mxGeometry x="380" y="770" width="400" height="280" as="geometry" />
        </mxCell>
        <mxCell id="abvOP73k08v8gDnkBYuO-17" value="" style="rounded=0;whiteSpace=wrap;html=1;shadow=1;glass=0;labelBackgroundColor=none;labelBorderColor=none;sketch=0;strokeColor=default;gradientColor=none;" vertex="1" parent="1">
          <mxGeometry x="400" y="780" width="200" height="90" as="geometry" />
        </mxCell>
        <mxCell id="abvOP73k08v8gDnkBYuO-18" value="字符串常量池" style="text;html=1;strokeColor=none;fillColor=none;align=center;verticalAlign=middle;whiteSpace=wrap;rounded=0;shadow=1;glass=0;labelBackgroundColor=none;labelBorderColor=none;sketch=0;" vertex="1" parent="1">
          <mxGeometry x="460" y="780" width="80" height="20" as="geometry" />
        </mxCell>
      </root>
    </mxGraphModel>
  </diagram>
</mxfile>
